<svg width="121" height="121" viewBox="0 0 121 121" fill="none" xmlns="http://www.w3.org/2000/svg">
<circle cx="60.9301" cy="60.1101" r="60.0315" fill="#808080"/>
<path d="M19.4427 60.6276C20.4454 60.6276 21.2367 60.427 21.8168 60.026C22.404 59.625 22.6976 58.9017 22.6976 57.8561C22.6976 56.7317 22.2894 55.9655 21.473 55.5573C21.0362 55.3424 20.4525 55.235 19.722 55.235H14.5013V60.6276H19.4427ZM12.3636 53.3981H19.6683C20.8715 53.3981 21.8633 53.5735 22.6439 53.9244C24.1263 54.5976 24.8676 55.8401 24.8676 57.652C24.8676 58.5973 24.6706 59.3707 24.2767 59.9723C23.89 60.5739 23.3457 61.0573 22.6439 61.4225C23.2598 61.6731 23.7217 62.0026 24.0297 62.4108C24.3448 62.819 24.5202 63.4814 24.556 64.3981L24.6312 66.5143C24.6527 67.1158 24.7028 67.5634 24.7816 67.8571C24.9105 68.3584 25.1397 68.6806 25.4691 68.8239V69.1783H22.848C22.7764 69.0423 22.7191 68.8668 22.6761 68.652C22.6332 68.4371 22.5974 68.0218 22.5687 67.4059L22.4398 64.774C22.3897 63.7428 22.0066 63.0517 21.2904 62.7008C20.8822 62.5074 20.2413 62.4108 19.3676 62.4108H14.5013V69.1783H12.3636V53.3981ZM28.2084 53.3981H39.7133V55.3317H30.2924V60.1227H39.0043V61.9489H30.2924V67.2985H39.8744V69.1783H28.2084V53.3981ZM44.0746 64.0865C44.1247 64.9817 44.336 65.7086 44.7084 66.2672C45.4174 67.3128 46.667 67.8356 48.4574 67.8356C49.2595 67.8356 49.9899 67.721 50.6488 67.4918C51.9235 67.0478 52.5609 66.2529 52.5609 65.1071C52.5609 64.2477 52.2924 63.6354 51.7552 63.2701C51.211 62.9121 50.3588 62.6005 49.1986 62.3356L47.0609 61.8522C45.6644 61.5371 44.6761 61.1897 44.0961 60.8102C43.0935 60.1513 42.5922 59.1666 42.5922 57.8561C42.5922 56.4381 43.0827 55.2744 44.0638 54.3649C45.045 53.4554 46.4343 53.0006 48.2318 53.0006C49.8861 53.0006 51.2898 53.4017 52.4427 54.2037C53.6029 54.9987 54.183 56.2734 54.183 58.028H52.1742C52.0668 57.1829 51.8376 56.5348 51.4867 56.0836C50.835 55.2601 49.7286 54.8483 48.1674 54.8483C46.9069 54.8483 46.001 55.1132 45.4496 55.6432C44.8982 56.1731 44.6224 56.789 44.6224 57.4908C44.6224 58.2643 44.9447 58.83 45.5892 59.1881C46.0118 59.4173 46.9678 59.7037 48.4574 60.0475L50.6703 60.5524C51.7373 60.7959 52.5609 61.1289 53.141 61.5514C54.1436 62.289 54.6449 63.3597 54.6449 64.7633C54.6449 66.5107 54.0075 67.7604 52.7328 68.5123C51.4652 69.2643 49.9899 69.6403 48.307 69.6403C46.3448 69.6403 44.8086 69.139 43.6986 68.1364C42.5886 67.1409 42.0443 65.791 42.0658 64.0865H44.0746ZM68.8353 53.3981V55.278H63.5179V69.1783H61.348V55.278H56.0306V53.3981H68.8353ZM77.2679 62.7115L74.8724 55.7399L72.3265 62.7115H77.2679ZM73.7552 53.3981H76.1722L81.8978 69.1783H79.556L77.9554 64.4518H71.7142L70.0062 69.1783H67.8148L73.7552 53.3981ZM91.1791 60.6276C92.1817 60.6276 92.973 60.427 93.5531 60.026C94.1403 59.625 94.434 58.9017 94.434 57.8561C94.434 56.7317 94.0258 55.9655 93.2094 55.5573C92.7725 55.3424 92.1888 55.235 91.4584 55.235H86.2377V60.6276H91.1791ZM84.1 53.3981H91.4047C92.6078 53.3981 93.5997 53.5735 94.3802 53.9244C95.8627 54.5976 96.6039 55.8401 96.6039 57.652C96.6039 58.5973 96.4069 59.3707 96.0131 59.9723C95.6263 60.5739 95.0821 61.0573 94.3802 61.4225C94.9961 61.6731 95.458 62.0026 95.766 62.4108C96.0811 62.819 96.2566 63.4814 96.2924 64.3981L96.3676 66.5143C96.389 67.1158 96.4392 67.5634 96.5179 67.8571C96.6469 68.3584 96.876 68.6806 97.2054 68.8239V69.1783H94.5844C94.5127 69.0423 94.4554 68.8668 94.4125 68.652C94.3695 68.4371 94.3337 68.0218 94.3051 67.4059L94.1761 64.774C94.126 63.7428 93.7429 63.0517 93.0267 62.7008C92.6185 62.5074 91.9776 62.4108 91.1039 62.4108H86.2377V69.1783H84.1V53.3981ZM110.837 53.3981V55.278H105.52V69.1783H103.35V55.278H98.0326V53.3981H110.837Z" fill="black"/>
<circle cx="60.93" cy="60.0419" r="54.31" fill="white" fill-opacity="0.15"/>
</svg>
