<svg width="121" height="121" viewBox="0 0 121 121" fill="none" xmlns="http://www.w3.org/2000/svg">
<circle cx="60.3048" cy="60.1784" r="60.0315" fill="#808080"/>
<path d="M25.1564 62.6237C25.2111 63.6002 25.4415 64.3932 25.8478 65.0026C26.6212 66.1432 27.9845 66.7135 29.9376 66.7135C30.8126 66.7135 31.6095 66.5885 32.3282 66.3385C33.7189 65.8541 34.4142 64.9869 34.4142 63.7369C34.4142 62.7994 34.1212 62.1315 33.5353 61.733C32.9415 61.3424 32.0118 61.0026 30.7462 60.7135L28.4142 60.1862C26.8907 59.8424 25.8126 59.4635 25.1798 59.0494C24.0861 58.3307 23.5392 57.2565 23.5392 55.8268C23.5392 54.2799 24.0743 53.0104 25.1447 52.0182C26.215 51.026 27.7306 50.5299 29.6915 50.5299C31.4962 50.5299 33.0275 50.9674 34.2853 51.8424C35.5509 52.7096 36.1837 54.1002 36.1837 56.0143H33.9923C33.8751 55.0924 33.6251 54.3854 33.2423 53.8932C32.5314 52.9948 31.3243 52.5455 29.6212 52.5455C28.2462 52.5455 27.2579 52.8346 26.6564 53.4127C26.0548 53.9908 25.754 54.6627 25.754 55.4283C25.754 56.2721 26.1056 56.8893 26.8087 57.2799C27.2697 57.5299 28.3126 57.8424 29.9376 58.2174L32.3517 58.7682C33.5157 59.0338 34.4142 59.3971 35.047 59.858C36.1407 60.6627 36.6876 61.8307 36.6876 63.3619C36.6876 65.2682 35.9923 66.6315 34.6017 67.4518C33.2189 68.2721 31.6095 68.6823 29.7736 68.6823C27.6329 68.6823 25.9572 68.1354 24.7462 67.0416C23.5353 65.9557 22.9415 64.483 22.965 62.6237H25.1564ZM52.1681 50.9635V53.0143H46.3673V68.1783H44.0001V53.0143H38.1993V50.9635H52.1681ZM61.3673 61.1237L58.754 53.5182L55.9767 61.1237H61.3673ZM57.5353 50.9635H60.172L66.4181 68.1783H63.8634L62.1173 63.0221H55.3087L53.4454 68.1783H51.0548L57.5353 50.9635ZM76.5431 58.8502C77.6368 58.8502 78.5001 58.6315 79.1329 58.194C79.7736 57.7565 80.0939 56.9674 80.0939 55.8268C80.0939 54.6002 79.6486 53.7643 78.7579 53.319C78.2814 53.0846 77.6447 52.9674 76.8478 52.9674H71.1525V58.8502H76.5431ZM68.8204 50.9635H76.7892C78.1017 50.9635 79.1837 51.1549 80.0353 51.5377C81.6525 52.2721 82.4611 53.6276 82.4611 55.6041C82.4611 56.6354 82.2462 57.4791 81.8165 58.1354C81.3947 58.7916 80.8009 59.319 80.0353 59.7174C80.7072 59.9908 81.2111 60.3502 81.547 60.7955C81.8907 61.2408 82.0822 61.9635 82.1212 62.9635L82.2032 65.2721C82.2267 65.9283 82.2814 66.4166 82.3673 66.7369C82.5079 67.2838 82.7579 67.6354 83.1173 67.7916V68.1783H80.2579C80.1798 68.0299 80.1173 67.8385 80.0704 67.6041C80.0236 67.3698 79.9845 66.9166 79.9532 66.2448L79.8126 63.3737C79.7579 62.2487 79.34 61.4948 78.5587 61.1119C78.1134 60.901 77.4142 60.7955 76.4611 60.7955H71.1525V68.1783H68.8204V50.9635ZM97.9884 50.9635V53.0143H92.1876V68.1783H89.8204V53.0143H84.0197V50.9635H97.9884Z" fill="black"/>
<circle cx="60.3048" cy="60.1102" r="54.31" fill="white" fill-opacity="0.15"/>
</svg>
