<svg id="button_last" class="match_buttons" width="121" height="121" viewBox="0 0 121 121" fill="none" xmlns="http://www.w3.org/2000/svg">
<circle cx="60.6183" cy="60.6034" r="60.0315" fill="#352B24"/>
<path d="M24.7621 59.8431C25.8558 59.8431 26.7191 59.6244 27.3519 59.1869C27.9926 58.7494 28.3129 57.9603 28.3129 56.8197C28.3129 55.5931 27.8676 54.7572 26.9769 54.3119C26.5004 54.0775 25.8636 53.9603 25.0668 53.9603H19.3715V59.8431H24.7621ZM17.0394 51.9564H25.0082C26.3207 51.9564 27.4027 52.1478 28.2543 52.5306C29.8715 53.265 30.6801 54.6205 30.6801 56.597C30.6801 57.6283 30.4652 58.472 30.0355 59.1283C29.6136 59.7845 29.0199 60.3119 28.2543 60.7103C28.9261 60.9838 29.4301 61.3431 29.766 61.7885C30.1097 62.2338 30.3011 62.9564 30.3402 63.9564L30.4222 66.265C30.4457 66.9213 30.5004 67.4095 30.5863 67.7299C30.7269 68.2767 30.9769 68.6283 31.3363 68.7845V69.1713H28.4769C28.3988 69.0228 28.3363 68.8314 28.2894 68.597C28.2426 68.3627 28.2035 67.9095 28.1722 67.2377L28.0316 64.3666C27.9769 63.2416 27.559 62.4877 26.7777 62.1049C26.3324 61.8939 25.6332 61.7885 24.6801 61.7885H19.3715V69.1713H17.0394V51.9564ZM34.3246 51.9564H46.8754V54.0658H36.598V59.2924H46.1019V61.2845H36.598V67.1205H47.0511V69.1713H34.3246V51.9564ZM50.3324 51.9564H58.0785C59.6097 51.9564 60.8441 52.39 61.7816 53.2572C62.7191 54.1166 63.1879 55.3275 63.1879 56.89C63.1879 58.2338 62.7699 59.4056 61.934 60.4056C61.098 61.3978 59.8129 61.8939 58.0785 61.8939H52.6644V69.1713H50.3324V51.9564ZM60.8324 56.9017C60.8324 55.6361 60.3636 54.7767 59.4261 54.3236C58.9105 54.0814 58.2035 53.9603 57.3051 53.9603H52.6644V59.9252H57.3051C58.3519 59.9252 59.1996 59.7025 59.848 59.2572C60.5043 58.8119 60.8324 58.0267 60.8324 56.9017ZM66.1176 51.9564H68.4496V67.1205H77.1683V69.1713H66.1176V51.9564ZM88.3129 62.1166L85.6996 54.5111L82.9222 62.1166H88.3129ZM84.4808 51.9564H87.1176L93.3636 69.1713H90.809L89.0629 64.015H82.2543L80.391 69.1713H78.0004L84.4808 51.9564ZM92.3676 51.9564H95.0863L100.032 60.2299L104.977 51.9564H107.707L101.203 62.2338V69.1713H98.8715V62.2338L92.3676 51.9564Z" fill="white"/>
<circle onclick="lastSequence()" id="last_key" class="keys" cx="60.6182" cy="60.5352" r="54.31" fill="white" fill-opacity="0.15"/>
</svg>

