<svg width="322" height="52" viewBox="0 0 322 52" fill="none" xmlns="http://www.w3.org/2000/svg">
<g clip-path="url(#clip0)">
<path d="M1.61475 40.1183L18.2995 4.98792H25.312L9.11081 40.1183H1.61475Z" fill="#4AAB99" stroke="#565555"/>
<path d="M13.8456 40.1183L29.9922 4.98792H36.7784L21.0999 40.1183H13.8456Z" fill="#EEC852" stroke="#565555"/>
<path d="M25.312 40.1183L41.4585 4.98792H48.2449L32.5662 40.1183H25.312Z" fill="#2F95B8" stroke="#565555"/>
<path d="M36.7784 40.1183L53.4632 4.98792H60.4757L44.2745 40.1183H36.7784Z" fill="#F53A59" stroke="#565555"/>
<path d="M74.0596 8.76781C75.2436 8.76781 76.6036 8.87981 78.1396 9.10381C79.6756 9.29581 81.0836 9.51981 82.3636 9.77581L82.2676 13.3758C78.6516 12.6718 75.9156 12.3198 74.0596 12.3198C71.8516 12.3198 70.2676 12.7678 69.3076 13.6638C68.3796 14.5278 67.9156 15.9838 67.9156 18.0318V31.9518C67.9156 33.9998 68.3796 35.4878 69.3076 36.4158C70.2676 37.3118 71.8516 37.7598 74.0596 37.7598C75.4996 37.7598 77.3716 37.5358 79.6756 37.0878V26.4798H73.6756V22.6398H83.7556V39.5838C79.9156 40.7678 76.6836 41.3598 74.0596 41.3598C70.3796 41.3598 67.7556 40.5758 66.1876 39.0078C64.6196 37.4398 63.8356 34.9918 63.8356 31.6638V18.4638C63.8356 15.0718 64.6356 12.6078 66.2356 11.0718C67.8356 9.53581 70.4436 8.76781 74.0596 8.76781ZM107.261 9.34381V13.0398H94.7806V22.9758H106.301V26.6238H94.7806V37.0878H107.261V40.7838H90.7006V9.34381H107.261ZM128.398 40.7838L118.03 14.2398V40.7838H113.998V9.34381H120.526L130.702 35.8878V9.34381H134.734V40.7838H128.398ZM146.015 9.34381V40.7838H141.935V9.34381H146.015ZM173.68 30.8478C173.68 34.2398 172.816 36.8478 171.088 38.6718C169.36 40.4638 166.816 41.3598 163.456 41.3598C160.128 41.3598 157.584 40.4798 155.824 38.7198C154.096 36.9598 153.232 34.3678 153.232 30.9438V9.34381H157.312V31.4718C157.312 33.5198 157.84 35.0878 158.896 36.1758C159.984 37.2318 161.504 37.7598 163.456 37.7598C165.44 37.7598 166.96 37.2318 168.016 36.1758C169.072 35.0878 169.6 33.5198 169.6 31.4718V9.34381H173.68V30.8478ZM188.76 8.76781C190.488 8.76781 192.744 9.02381 195.528 9.53581L195.432 13.1358C192.808 12.6238 190.584 12.3678 188.76 12.3678C186.904 12.3678 185.56 12.7358 184.728 13.4718C183.928 14.2078 183.528 15.3278 183.528 16.8318V18.0798C183.528 18.8798 183.624 19.5198 183.816 19.9998C184.04 20.4478 184.424 20.8478 184.968 21.1998C185.512 21.5198 186.328 21.8558 187.416 22.2078L191.88 23.6958C194.024 24.4318 195.528 25.4078 196.392 26.6238C197.288 27.8398 197.736 29.6158 197.736 31.9518V32.8638C197.736 35.7118 196.904 37.8398 195.24 39.2478C193.608 40.6558 190.92 41.3598 187.176 41.3598C185.352 41.3598 183.016 41.0398 180.168 40.3998L180.264 36.7038C182.92 37.3438 185.192 37.6638 187.08 37.6638C189.48 37.6638 191.176 37.3118 192.168 36.6078C193.16 35.8718 193.656 34.7358 193.656 33.1998V31.6158C193.656 30.4958 193.4 29.6478 192.888 29.0718C192.408 28.4638 191.544 27.9518 190.296 27.5358L185.352 25.9038C183.144 25.1678 181.608 24.2238 180.744 23.0718C179.88 21.8878 179.448 20.1118 179.448 17.7438V17.2158C179.448 14.4318 180.184 12.3358 181.656 10.9278C183.16 9.48781 185.528 8.76781 188.76 8.76781ZM221.622 8.76781C222.806 8.76781 224.166 8.87981 225.702 9.10381C227.238 9.29581 228.646 9.51981 229.926 9.77581L229.83 13.3758C226.214 12.6718 223.478 12.3198 221.622 12.3198C219.414 12.3198 217.83 12.7678 216.87 13.6638C215.942 14.5278 215.478 15.9838 215.478 18.0318V31.9518C215.478 33.9998 215.942 35.4878 216.87 36.4158C217.83 37.3118 219.414 37.7598 221.622 37.7598C223.062 37.7598 224.934 37.5358 227.238 37.0878V26.4798H221.238V22.6398H231.318V39.5838C227.478 40.7678 224.246 41.3598 221.622 41.3598C217.942 41.3598 215.318 40.5758 213.75 39.0078C212.182 37.4398 211.398 34.9918 211.398 31.6638V18.4638C211.398 15.0718 212.198 12.6078 213.798 11.0718C215.398 9.53581 218.006 8.76781 221.622 8.76781ZM249.927 9.34381L259.575 40.7838H255.159L253.095 33.4878H241.527L239.463 40.7838H235.287L244.887 9.34381H249.927ZM247.335 13.0878L242.535 29.8398H252.087L247.335 13.0878ZM286.418 40.7838L286.178 14.9598L279.506 37.5198H274.466L267.794 14.9598L267.554 40.7838H263.57L263.858 9.34381H269.906L277.01 33.8718L284.066 9.34381H290.114L290.402 40.7838H286.418ZM313.933 9.34381V13.0398H301.453V22.9758H312.973V26.6238H301.453V37.0878H313.933V40.7838H297.373V9.34381H313.933Z" fill="#565555"/>
</g>
<defs>
<clipPath id="clip0">
<rect width="322" height="52" fill="white"/>
</clipPath>
</defs>
</svg>
