<svg class="simon_board" width="397" height="397" viewBox="0 0 397 397" fill="none" xmlns="http://www.w3.org/2000/svg">
<circle cx="198.498" cy="198.11" r="198" fill="#18110F"/>
<path id="bg_key_top_left" d="M25.9172 173.711C24.7172 181.711 29.0838 184.378 31.4172 184.711H103.857C107.261 184.711 108.076 181.886 108.651 179.891L108.667 179.836C125.603 121.155 178.917 108.711 181.417 108.711C183.917 107.711 183.917 105.378 183.917 103.711V33.7113C182.317 28.1113 176.917 27.3779 174.417 27.7113C73.2171 42.1113 31.4172 127.711 25.9172 173.711Z" fill="#4AAB99"/>
<path id="bg_key_top_right" d="M224.281 27.8484C216.281 26.6484 213.614 31.0151 213.281 33.3484L213.281 105.788C213.281 108.961 216.332 110.072 218.156 110.598C276.837 127.534 289.281 180.848 289.281 183.348C289.281 185.348 292.614 185.848 294.281 185.848L364.281 185.848C369.881 184.248 370.614 178.848 370.281 176.348C355.881 75.1484 270.281 33.3484 224.281 27.8484Z" fill="#F53A59"/>
<path id="bg_key_bottom_right" d="M370.144 225.212C371.344 217.212 366.977 214.546 364.644 214.212L292.204 214.212C289.042 214.212 287.996 217.001 287.394 219.087C270.458 277.768 217.667 290.212 214.644 290.212C212.144 290.961 212.144 293.546 212.144 295.212L212.144 365.212C213.744 370.812 219.144 371.546 221.644 371.212C322.844 356.812 364.644 271.212 370.144 225.212Z" fill="#2F95B8"/>
<path data-id="2" id="key_bottom_right" class="keys" d="M368.681 230.882C371.169 220.779 369.067 219.477 367.916 219.477L294.675 219.477C291.745 219.477 290.776 222.079 290.218 224.027C274.526 278.79 223.773 291.998 220.729 293.456C218.413 294.155 218.647 297.224 218.647 297.224L217.9 368C218.13 370.336 218.896 370.714 221.052 370.714C224.937 370.712 230.637 369.099 230.637 369.099C323.41 352.147 361.633 273.601 368.681 230.882Z" fill="white" fill-opacity="0.15"/>
<path data-id="0"  id="key_top_left" class="keys" d="M27.3596 167.476C24.872 177.579 26.9742 178.881 28.1247 178.881H101.366C104.296 178.881 105.265 176.279 105.823 174.331C121.515 119.568 172.268 106.36 175.311 104.902C177.628 104.203 177.394 101.134 177.394 101.134L178.141 30.3578C177.911 28.0218 177.145 27.6437 174.989 27.6437C171.104 27.6456 165.403 29.2592 165.403 29.2592C72.6304 46.2106 34.4073 124.757 27.3596 167.476Z" fill="white" fill-opacity="0.15"/>
<path data-id="1" id="key_top_right" class="keys" d="M230.516 28.8071C220.414 26.3195 219.111 28.4217 219.111 29.5722L219.111 102.814C219.111 105.743 221.714 106.712 223.661 107.27C278.425 122.962 291.632 173.715 293.09 176.759C293.789 179.075 296.858 178.841 296.858 178.841L367.634 179.588C369.97 179.359 370.349 178.593 370.349 176.436C370.347 172.551 368.733 166.851 368.733 166.851C351.484 75.5773 273.235 35.8548 230.516 28.8071Z" fill="white" fill-opacity="0.15"/>
<path id="bg_key_bottom_left" d="M171.78 371.075C179.78 372.275 182.447 367.909 182.78 365.575L182.78 293.135C182.042 289.711 179.519 288.791 177.905 288.325C119.224 271.389 106.78 218.075 106.78 215.575C105.667 213.075 103.447 213.075 101.78 213.075L31.78 213.075C26.18 214.675 25.4467 220.075 25.78 222.575C40.18 323.775 125.78 365.575 171.78 371.075Z" fill="#EEC852"/>
<path data-id="3" id="key_bottom_left" class="keys" d="M166.029 369.857C176.131 372.344 177.433 370.242 177.433 369.092L177.433 295.85C177.433 292.921 174.831 291.951 172.884 291.393C118.12 275.701 104.912 224.949 103.455 221.905C102.755 219.588 99.6861 219.822 99.6861 219.822L28.9102 219.075C26.5741 219.305 26.1961 220.071 26.196 222.228C26.198 226.113 27.8115 231.813 27.8115 231.813C44.763 324.586 123.31 362.809 166.029 369.857Z" fill="white" fill-opacity="0.15"/>
<circle cx="198.498" cy="198.178" r="60.0315" fill="#808080"/>
<circle onclick="startGame()" id="start_key" class="keys" cx="198.497" cy="198.11" r="54.31" fill="white" fill-opacity="0.15"/>
<path onclick="startGame()" id="start_text" d="M163.349 200.624C163.404 201.6 163.634 202.393 164.041 203.003C164.814 204.143 166.177 204.714 168.13 204.714C169.005 204.714 169.802 204.589 170.521 204.339C171.912 203.854 172.607 202.987 172.607 201.737C172.607 200.799 172.314 200.131 171.728 199.733C171.134 199.342 170.205 199.003 168.939 198.714L166.607 198.186C165.083 197.842 164.005 197.464 163.373 197.049C162.279 196.331 161.732 195.256 161.732 193.827C161.732 192.28 162.267 191.01 163.337 190.018C164.408 189.026 165.923 188.53 167.884 188.53C169.689 188.53 171.22 188.967 172.478 189.842C173.744 190.71 174.376 192.1 174.376 194.014H172.185C172.068 193.092 171.818 192.385 171.435 191.893C170.724 190.995 169.517 190.546 167.814 190.546C166.439 190.546 165.451 190.835 164.849 191.413C164.248 191.991 163.947 192.663 163.947 193.428C163.947 194.272 164.298 194.889 165.001 195.28C165.462 195.53 166.505 195.842 168.13 196.217L170.544 196.768C171.708 197.034 172.607 197.397 173.24 197.858C174.333 198.663 174.88 199.831 174.88 201.362C174.88 203.268 174.185 204.631 172.794 205.452C171.412 206.272 169.802 206.682 167.966 206.682C165.826 206.682 164.15 206.135 162.939 205.042C161.728 203.956 161.134 202.483 161.158 200.624H163.349ZM190.361 188.964V191.014H184.56V206.178H182.193V191.014H176.392V188.964H190.361ZM199.56 199.124L196.947 191.518L194.169 199.124H199.56ZM195.728 188.964H198.365L204.611 206.178H202.056L200.31 201.022H193.501L191.638 206.178H189.248L195.728 188.964ZM214.736 196.85C215.83 196.85 216.693 196.631 217.326 196.194C217.966 195.756 218.287 194.967 218.287 193.827C218.287 192.6 217.841 191.764 216.951 191.319C216.474 191.085 215.837 190.967 215.041 190.967H209.345V196.85H214.736ZM207.013 188.964H214.982C216.294 188.964 217.376 189.155 218.228 189.538C219.845 190.272 220.654 191.628 220.654 193.604C220.654 194.635 220.439 195.479 220.009 196.135C219.587 196.792 218.994 197.319 218.228 197.717C218.9 197.991 219.404 198.35 219.74 198.796C220.083 199.241 220.275 199.964 220.314 200.964L220.396 203.272C220.419 203.928 220.474 204.417 220.56 204.737C220.701 205.284 220.951 205.635 221.31 205.792V206.178H218.451C218.373 206.03 218.31 205.839 218.263 205.604C218.216 205.37 218.177 204.917 218.146 204.245L218.005 201.374C217.951 200.249 217.533 199.495 216.751 199.112C216.306 198.901 215.607 198.796 214.654 198.796H209.345V206.178H207.013V188.964ZM236.181 188.964V191.014H230.38V206.178H228.013V191.014H222.212V188.964H236.181Z" fill="#262626"/>
</svg>