<svg width="400" height="400" viewBox="0 0 400 400" fill="none" xmlns="http://www.w3.org/2000/svg">
<circle cx="199.899" cy="200.148" r="199.652" fill="#18110F"/>
<path d="M32.409 174.098C31.209 182.098 35.5757 184.764 37.909 185.098H110.349C113.753 185.098 114.568 182.272 115.143 180.277L115.159 180.223C132.095 121.542 185.409 109.098 187.909 109.098C190.409 108.098 190.409 105.764 190.409 104.098V34.0975C188.809 28.4975 183.409 27.7642 180.909 28.0975C79.7089 42.4975 37.909 128.098 32.409 174.098Z" fill="#4AAB99"/>
<path d="M230.773 28.2347C222.773 27.0347 220.106 31.4013 219.773 33.7347L219.773 106.175C219.773 109.348 222.824 110.458 224.648 110.985C283.329 127.921 295.773 181.235 295.773 183.735C295.773 185.735 299.106 186.235 300.773 186.235L370.773 186.235C376.373 184.635 377.106 179.235 376.773 176.735C362.373 75.5346 276.773 33.7347 230.773 28.2347Z" fill="#F53A59"/>
<path d="M376.636 225.598C377.836 217.598 373.469 214.932 371.136 214.598L298.696 214.598C295.534 214.598 294.488 217.387 293.886 219.473C276.95 278.154 224.159 290.598 221.136 290.598C218.636 291.348 218.636 293.932 218.636 295.598L218.636 365.598C220.236 371.198 225.636 371.932 228.136 371.598C329.336 357.198 371.136 271.598 376.636 225.598Z" fill="#2F95B8"/>
<path d="M375.173 231.268C377.661 221.166 375.558 219.863 374.408 219.863L301.167 219.863C298.237 219.863 297.268 222.466 296.71 224.413C281.018 279.177 230.265 292.384 227.221 293.842C224.905 294.541 225.139 297.61 225.139 297.61L224.392 368.386C224.622 370.722 225.387 371.1 227.544 371.1C231.429 371.099 237.129 369.485 237.129 369.485C329.902 352.534 368.125 273.987 375.173 231.268Z" fill="white" fill-opacity="0.15"/>
<path d="M34.3677 167.778C31.8801 177.88 33.9822 179.182 35.1327 179.182H108.374C111.304 179.182 112.273 176.58 112.831 174.633C128.523 119.869 179.276 106.661 182.319 105.204C184.636 104.504 184.402 101.435 184.402 101.435L185.149 30.6592C184.919 28.3232 184.153 27.9451 181.997 27.9451C178.112 27.947 172.411 29.5606 172.411 29.5606C79.6384 46.512 41.4154 125.059 34.3677 167.778Z" fill="white" fill-opacity="0.15"/>
<path d="M237.008 29.1933C226.905 26.7057 225.603 28.8079 225.603 29.9584L225.603 103.2C225.603 106.129 228.205 107.099 230.153 107.656C284.916 123.348 298.124 174.101 299.582 177.145C300.281 179.461 303.35 179.227 303.35 179.227L374.126 179.975C376.462 179.745 376.84 178.979 376.84 176.822C376.838 172.937 375.225 167.237 375.225 167.237C357.976 75.9635 279.727 36.2411 237.008 29.1933Z" fill="white" fill-opacity="0.15"/>
<path d="M178.272 371.461C186.272 372.661 188.938 368.295 189.272 365.961L189.272 293.521C188.534 290.098 186.011 289.177 184.397 288.711C125.716 271.775 113.272 218.461 113.272 215.961C112.159 213.461 109.939 213.461 108.272 213.461L38.2718 213.461C32.6718 215.061 31.9385 220.461 32.2718 222.961C46.6718 324.161 132.272 365.961 178.272 371.461Z" fill="#EEC852"/>
<path d="M172.521 370.243C182.623 372.73 183.925 370.628 183.925 369.478L183.925 296.236C183.925 293.307 181.323 292.337 179.376 291.78C124.612 276.088 111.404 225.335 109.946 222.291C109.247 219.974 106.178 220.209 106.178 220.209L35.402 219.461C33.066 219.691 32.6879 220.457 32.6879 222.614C32.6898 226.499 34.3033 232.199 34.3033 232.199C51.2548 324.972 129.802 363.195 172.521 370.243Z" fill="white" fill-opacity="0.15"/>
</svg>
