<svg width="397" height="397" viewBox="0 0 397 397" fill="none" xmlns="http://www.w3.org/2000/svg">
<circle cx="198.498" cy="198.11" r="198" fill="#18110F"/>
<path d="M25.9172 173.711C24.7172 181.711 29.0838 184.378 31.4172 184.711H103.857C107.261 184.711 108.076 181.886 108.651 179.891L108.667 179.836C125.603 121.155 178.917 108.711 181.417 108.711C183.917 107.711 183.917 105.378 183.917 103.711V33.7113C182.317 28.1113 176.917 27.3779 174.417 27.7113C73.2171 42.1113 31.4172 127.711 25.9172 173.711Z" fill="#4AAB99"/>
<path d="M224.281 27.8484C216.281 26.6484 213.614 31.0151 213.281 33.3484L213.281 105.788C213.281 108.961 216.332 110.072 218.156 110.598C276.837 127.534 289.281 180.848 289.281 183.348C289.281 185.348 292.614 185.848 294.281 185.848L364.281 185.848C369.881 184.248 370.614 178.848 370.281 176.348C355.881 75.1484 270.281 33.3484 224.281 27.8484Z" fill="#F53A59"/>
<path d="M370.144 225.212C371.344 217.212 366.977 214.546 364.644 214.212L292.204 214.212C289.042 214.212 287.996 217.001 287.394 219.087C270.458 277.768 217.667 290.212 214.644 290.212C212.144 290.961 212.144 293.546 212.144 295.212L212.144 365.212C213.744 370.812 219.144 371.546 221.644 371.212C322.844 356.812 364.644 271.212 370.144 225.212Z" fill="#2F95B8"/>
<path d="M368.681 230.882C371.169 220.779 369.067 219.477 367.916 219.477L294.675 219.477C291.745 219.477 290.776 222.079 290.218 224.027C274.526 278.79 223.773 291.998 220.729 293.456C218.413 294.155 218.647 297.224 218.647 297.224L217.9 368C218.13 370.336 218.896 370.714 221.052 370.714C224.937 370.712 230.637 369.099 230.637 369.099C323.41 352.147 361.633 273.601 368.681 230.882Z" fill="white" fill-opacity="0.15"/>
<path d="M27.3596 167.476C24.872 177.579 26.9742 178.881 28.1247 178.881H101.366C104.296 178.881 105.265 176.279 105.823 174.331C121.515 119.568 172.268 106.36 175.311 104.902C177.628 104.203 177.394 101.134 177.394 101.134L178.141 30.3578C177.911 28.0218 177.145 27.6437 174.989 27.6437C171.104 27.6456 165.403 29.2592 165.403 29.2592C72.6304 46.2106 34.4073 124.757 27.3596 167.476Z" fill="white" fill-opacity="0.15"/>
<path d="M230.516 28.8071C220.414 26.3195 219.111 28.4217 219.111 29.5722L219.111 102.814C219.111 105.743 221.714 106.712 223.661 107.27C278.425 122.962 291.632 173.715 293.09 176.759C293.789 179.075 296.858 178.841 296.858 178.841L367.634 179.588C369.97 179.359 370.349 178.593 370.349 176.436C370.347 172.551 368.733 166.851 368.733 166.851C351.484 75.5773 273.235 35.8548 230.516 28.8071Z" fill="white" fill-opacity="0.15"/>
<path d="M171.78 371.075C179.78 372.275 182.447 367.909 182.78 365.575L182.78 293.135C182.042 289.711 179.519 288.791 177.905 288.325C119.224 271.389 106.78 218.075 106.78 215.575C105.667 213.075 103.447 213.075 101.78 213.075L31.78 213.075C26.18 214.675 25.4467 220.075 25.78 222.575C40.18 323.775 125.78 365.575 171.78 371.075Z" fill="#cea838"/>
<path d="M166.029 369.857C176.131 372.344 177.433 370.242 177.433 369.092L177.433 295.85C177.433 292.921 174.831 291.951 172.884 291.393C118.12 275.701 104.912 224.949 103.455 221.905C102.755 219.588 99.6861 219.822 99.6861 219.822L28.9102 219.075C26.5741 219.305 26.1961 220.071 26.196 222.228C26.198 226.113 27.8115 231.813 27.8115 231.813C44.763 324.586 123.31 362.809 166.029 369.857Z" fill="white" fill-opacity="0.15"/>
</svg>
