<svg width="251" height="251" viewBox="0 0 251 251" fill="none" xmlns="http://www.w3.org/2000/svg">
<path d="M1.09214 106.935C0.221658 112.753 3.38925 114.693 5.08186 114.935H57.63C60.0991 114.935 60.6903 112.88 61.1077 111.43L61.1192 111.39C73.4047 68.7091 112.079 59.6581 113.892 59.6581C115.706 58.9307 115.706 57.2336 115.706 56.0214V5.108C114.545 1.03493 110.628 0.50155 108.814 0.743995C35.4037 11.2176 5.08186 73.4774 1.09214 106.935Z" fill="#808080"/>
<path d="M144.986 0.843753C139.183 -0.029048 137.248 3.14698 137.006 4.84409L137.006 57.5321C137.006 59.8399 139.22 60.6478 140.543 61.0306C183.11 73.3488 192.137 112.126 192.137 113.944C192.137 115.399 194.555 115.762 195.764 115.762L246.542 115.762C250.604 114.599 251.136 110.671 250.895 108.853C240.449 35.2466 178.354 4.84409 144.986 0.843753Z" fill="#9E61FF"/>
<path d="M250.795 144.393C251.666 138.575 248.498 136.635 246.805 136.393L194.257 136.393C191.964 136.393 191.205 138.421 190.768 139.938C178.483 182.619 140.188 191.67 137.995 191.67C136.181 192.215 136.181 194.094 136.181 195.307L136.181 246.22C137.342 250.293 141.259 250.827 143.073 250.584C216.484 240.11 246.805 177.851 250.795 144.393Z" fill="#73A4FF"/>
<path d="M249.734 148.517C251.539 141.169 250.014 140.222 249.179 140.222L196.05 140.222C193.925 140.222 193.221 142.115 192.817 143.531C181.434 183.363 144.617 192.969 142.409 194.029C140.729 194.538 140.899 196.77 140.899 196.77L140.357 248.248C140.524 249.947 141.079 250.222 142.644 250.222C145.462 250.221 149.597 249.047 149.597 249.047C216.895 236.718 244.622 179.588 249.734 148.517Z" fill="white" fill-opacity="0.15"/>
<path d="M2.51297 102.338C0.708457 109.686 2.23337 110.633 3.06794 110.633H56.1975C58.3225 110.633 59.0256 108.741 59.4303 107.324C70.8133 67.4927 107.63 57.8863 109.838 56.826C111.518 56.3176 111.348 54.0851 111.348 54.0851L111.89 2.60741C111.723 0.908308 111.168 0.63331 109.603 0.633301C106.785 0.634708 102.65 1.8083 102.65 1.8083C35.3525 14.1377 7.62541 71.2674 2.51297 102.338Z" fill="white" fill-opacity="0.15"/>
<path d="M149.509 1.54103C142.18 -0.268281 141.236 1.26069 141.236 2.09748L141.236 55.3685C141.236 57.4991 143.123 58.2041 144.536 58.6099C184.262 70.0232 193.843 106.938 194.9 109.151C195.407 110.836 197.634 110.666 197.634 110.666L248.975 111.209C250.669 111.042 250.944 110.485 250.944 108.917C250.942 106.091 249.772 101.945 249.772 101.945C237.259 35.5586 180.497 6.66709 149.509 1.54103Z" fill="white" fill-opacity="0.15"/>
<path d="M106.901 250.484C112.705 251.357 114.639 248.181 114.881 246.484L114.881 193.796C114.346 191.306 112.515 190.636 111.345 190.298C68.7773 177.979 59.7503 139.202 59.7503 137.384C58.943 135.566 57.3323 135.566 56.1233 135.566L5.34506 135.566C1.2828 136.729 0.750838 140.657 0.992639 142.475C11.4384 216.082 73.5329 246.484 106.901 250.484Z" fill="#EEC852"/>
<path d="M102.729 249.598C110.057 251.407 111.002 249.878 111.002 249.041L111.002 195.771C111.002 193.64 109.114 192.935 107.702 192.529C67.9759 181.116 58.395 144.201 57.3376 141.988C56.8305 140.303 54.604 140.473 54.604 140.473L3.26293 139.93C1.56834 140.097 1.29407 140.654 1.29406 142.222C1.29547 145.048 2.46594 149.194 2.46594 149.194C14.7626 216.671 71.7407 244.472 102.729 249.598Z" fill="white" fill-opacity="0.15"/>
</svg>
