<svg width="397" height="397" viewBox="0 0 397 397" fill="none" xmlns="http://www.w3.org/2000/svg">
<circle cx="198.498" cy="198.496" r="198" fill="#18110F"/>
<path d="M25.9172 174.098C24.7172 182.098 29.0838 184.764 31.4172 185.098H103.857C107.261 185.098 108.076 182.272 108.651 180.277L108.667 180.223C125.603 121.542 178.917 109.098 181.417 109.098C183.917 108.098 183.917 105.764 183.917 104.098V34.0975C182.317 28.4975 176.917 27.7642 174.417 28.0975C73.2171 42.4975 31.4172 128.098 25.9172 174.098Z" fill="#808080"/>
<path d="M224.281 28.2347C216.281 27.0347 213.614 31.4013 213.281 33.7347L213.281 106.175C213.281 109.348 216.332 110.458 218.156 110.985C276.837 127.921 289.281 181.235 289.281 183.735C289.281 185.735 292.614 186.235 294.281 186.235L364.281 186.235C369.881 184.635 370.614 179.235 370.281 176.735C355.881 75.5346 270.281 33.7347 224.281 28.2347Z" fill="#9E61FF"/>
<path d="M370.144 225.599C371.344 217.599 366.977 214.932 364.644 214.599L292.204 214.599C289.042 214.599 287.996 217.387 287.394 219.474C270.458 278.154 217.667 290.599 214.644 290.599C212.144 291.348 212.144 293.932 212.144 295.599L212.144 365.599C213.744 371.199 219.144 371.932 221.644 371.599C322.844 357.199 364.644 271.599 370.144 225.599Z" fill="#73A4FF"/>
<path d="M368.681 231.268C371.169 221.166 369.067 219.863 367.916 219.863L294.675 219.863C291.745 219.863 290.776 222.466 290.218 224.413C274.526 279.177 223.773 292.384 220.729 293.842C218.413 294.541 218.647 297.61 218.647 297.61L217.9 368.386C218.13 370.722 218.896 371.101 221.052 371.101C224.937 371.099 230.637 369.485 230.637 369.485C323.41 352.534 361.633 273.987 368.681 231.268Z" fill="white" fill-opacity="0.15"/>
<path d="M27.3596 167.863C24.872 177.965 26.9742 179.267 28.1247 179.267H101.366C104.296 179.267 105.265 176.665 105.823 174.718C121.515 119.954 172.268 106.746 175.311 105.288C177.628 104.589 177.394 101.52 177.394 101.52L178.141 30.7441C177.911 28.408 177.145 28.0299 174.989 28.0299C171.104 28.0318 165.403 29.6454 165.403 29.6454C72.6304 46.5969 34.4073 125.144 27.3596 167.863Z" fill="white" fill-opacity="0.15"/>
<path d="M230.516 29.1933C220.414 26.7057 219.111 28.8079 219.111 29.9584L219.111 103.2C219.111 106.129 221.714 107.099 223.661 107.656C278.425 123.348 291.632 174.101 293.09 177.145C293.789 179.461 296.858 179.227 296.858 179.227L367.634 179.975C369.97 179.745 370.349 178.979 370.349 176.822C370.347 172.937 368.733 167.237 368.733 167.237C351.484 75.9635 273.235 36.2411 230.516 29.1933Z" fill="white" fill-opacity="0.15"/>
<path d="M171.78 371.461C179.78 372.661 182.447 368.295 182.78 365.961L182.78 293.522C182.042 290.098 179.519 289.177 177.905 288.712C119.224 271.775 106.78 218.462 106.78 215.962C105.667 213.462 103.447 213.462 101.78 213.462L31.78 213.462C26.18 215.062 25.4467 220.462 25.78 222.962C40.18 324.162 125.78 365.961 171.78 371.461Z" fill="#cea838"/>
<path d="M166.029 370.243C176.131 372.73 177.433 370.628 177.433 369.478L177.433 296.236C177.433 293.307 174.831 292.338 172.884 291.78C118.12 276.088 104.912 225.335 103.455 222.291C102.755 219.975 99.6861 220.209 99.6861 220.209L28.9102 219.462C26.5741 219.691 26.1961 220.457 26.196 222.614C26.198 226.499 27.8115 232.199 27.8115 232.199C44.763 324.972 123.31 363.195 166.029 370.243Z" fill="white" fill-opacity="0.15"/>
</svg>
